<?xml version="1.0" encoding="utf-8"?>
<!-- Generator: Adobe Illustrator 20.1.0, SVG Export Plug-In . SVG Version: 6.00 Build 0)  -->
<svg version="1.1" id="Layer_1" xmlns="http://www.w3.org/2000/svg" xmlns:xlink="http://www.w3.org/1999/xlink" x="0px" y="0px"
	 width="1400px" height="464px" viewBox="0 0 1400 464" style="enable-background:new 0 0 1400 464;" xml:space="preserve">
<style type="text/css">
	.st0{fill:#09A055;}
	.st1{fill:#0F9149;}
	.st2{fill:#0F8642;}
	.st3{fill:#0C7E39;}
</style>
<path class="st0" d="M0,464h1400V102.4l-90.8,15.5c0,0-32.2,5.5-64.6,0.8l-450-65.3c0,0-32.4-4.7-64.4,2.1l-385.5,82.9
	c-16.1,3.5-30.9,2.5-63.4-1.8C225.6,129.4,46.2,96.6,0,102.3V464z"/>
<path class="st1" d="M1400,250.3c-74.3-7.4-105.1-16-172.5-34.4l-165.1-45.1c0,0-31.4-8.6-62.6,0.8l-333.6,101
	c0,0-31.1,9.4-61.5-1.9l-230.2-85.9c0,0-30.4-11.4-62.1-3.5L53.1,245.1c-17.4,3.9-35.2,5.6-53.1,5.2V464h1400V250.3z"/>
<path class="st2" d="M0,372.5c2-0.2,149.1-66.2,214-78.8c0,0,21.4-4.2,40.8,5l124.4,58.8c0,0,19.4,9.2,35-4.8l23.3-21
	c0,0,15.6-14.1,36.8-9.1l284.2,66.5c0,0,21.2,5,41.6-2.2l231.3-81c0,0,20.4-7.2,41.5-2l284.3,69.6c0,0,21.1,5.2,42-0.7l0.9-0.2V464
	H0V372.5z"/>
<path class="st3" d="M1400,406.9l-64.7,16.1c0,0-12.7,3.1-25.2-0.5l-181-52.5c0,0-12.5-3.6-24.6,1l-169.3,65.8c0,0-12.1,4.7-25,2.7
	l-340.8-50.8c0,0-13-2-25.5,1.6l-189.3,54.2c0,0-12.5,3.6-25.3,0.7l-282.5-47c-13.3-2.2-32.4,4.7-46.8,8.6V464h1400V406.9z"/>
</svg>
